<?xml version="1.0" encoding="utf-8"?><svg viewBox="0 0 50 37" xmlns="http://www.w3.org/2000/svg" xmlns:xlink="http://www.w3.org/1999/xlink"><style>:root>svg{display:none}:root>svg:target{display:block}</style><svg viewBox="0 0 32 32" id="arrow-up" xmlns="http://www.w3.org/2000/svg"><path d="M27.414 12.586l-10-10a2 2 0 00-2.828 0l-10 10a2 2 0 102.828 2.828L14 8.828V28a2 2 0 104 0V8.828l6.586 6.586c.39.39.902.586 1.414.586s1.024-.195 1.414-.586a2 2 0 000-2.828z"/></svg><svg fill="none" viewBox="0 0 11 8" id="check" xmlns="http://www.w3.org/2000/svg"><path d="M1 3.5l3 3L9.5 1" stroke="#fff" stroke-width="1.5" stroke-linecap="round" stroke-linejoin="round"/></svg><svg fill="none" viewBox="0 0 50 37" id="check-mark" xmlns="http://www.w3.org/2000/svg"><path fill-rule="evenodd" clip-rule="evenodd" d="M49.345.52a2 2 0 01.135 2.825l-30 33a2 2 0 01-2.797.16l-16-14a2 2 0 012.634-3.01L17.84 32.203 46.52.655A2 2 0 0149.345.52z" fill="#fff"/></svg><svg viewBox="0 0 32 32" id="close" xmlns="http://www.w3.org/2000/svg"><path d="M.937.937a3.2 3.2 0 014.526 0L16 11.474 26.537.937a3.199 3.199 0 114.525 4.526L20.525 16l10.537 10.537a3.199 3.199 0 11-4.525 4.525L16 20.525 5.463 31.062a3.2 3.2 0 01-4.526-4.525L11.474 16 .937 5.463a3.2 3.2 0 010-4.526z"/></svg><svg viewBox="0 0 32 32" id="download" xmlns="http://www.w3.org/2000/svg"><path fill="none" d="M5.333 16v9.333h21.333V16M16 4.668v13.333M16 18.001l4.5-4.5M16 18.001l-4.5-4.5"/></svg><svg fill="none" viewBox="0 0 15 15" id="search" xmlns="http://www.w3.org/2000/svg"><path fill-rule="evenodd" clip-rule="evenodd" d="M13 6a4 4 0 10-8 0 4 4 0 008 0zM9 0a6 6 0 11-3.476 10.89l-3.817 3.817a1 1 0 01-1.414-1.414l3.816-3.816A6 6 0 019 0z" fill="#2C2C2C"/></svg><svg aria-hidden="true" style="position:absolute;width:0;height:0" overflow="hidden" viewBox="0 0 0 0" id="symbol-defs" xmlns="http://www.w3.org/2000/svg"><defs><symbol id="gicon-close" viewBox="0 0 32 32"><path d="M.937.937a3.2 3.2 0 014.526 0L16 11.474 26.537.937a3.199 3.199 0 114.525 4.526L20.525 16l10.537 10.537a3.199 3.199 0 11-4.525 4.525L16 20.525 5.463 31.062a3.2 3.2 0 01-4.526-4.525L11.474 16 .937 5.463a3.2 3.2 0 010-4.526z"/></symbol></defs></svg></svg>