<?xml version="1.0" encoding="utf-8"?><svg viewBox="0 0 50 37" xmlns="http://www.w3.org/2000/svg" xmlns:xlink="http://www.w3.org/1999/xlink"><style>:root>svg{display:none}:root>svg:target{display:block}</style><svg fill="none" viewBox="0 0 24 24" id="archive-box" xmlns="http://www.w3.org/2000/svg"><path d="M15 12.51h.5v-2h1v2.5c0 .277-.223.5-.5.5H8a.5.5 0 01-.5-.5v-2.5h1v2H15z" fill="#2C2C2C" stroke="#2C2C2C"/><path d="M2.922 6.309l-.013-.01 2.4-3.192.001-.001a1.506 1.506 0 011.198-.597h11c.471 0 .922.226 1.202.603h0l2.395 3.204-.012.01.294.394c.08.109.113.203.113.29v11c0 .827-.673 1.5-1.5 1.5H4c-.827 0-1.5-.673-1.5-1.5v-11c0-.088.033-.183.115-.292l.307-.41zM6.508 3.51h-.25l-.15.2-1.504 2-.602.8h15.999l-.598-.8-1.494-2-.15-.2H6.508zM3.5 18.01v.5h17.002v-.5l-.002-10v-.5h-17v10.5z" fill="#2C2C2C" stroke="#2C2C2C"/></svg><svg fill="none" viewBox="0 0 20 20" id="arrow-in-circle" xmlns="http://www.w3.org/2000/svg"><path d="M10 17.5a7.5 7.5 0 100-15 7.5 7.5 0 000 15zM10 13.75v-7.5M10 6.25L7.187 9.063M10 6.25l2.813 2.813"/></svg><svg viewBox="0 0 32 32" id="arrow-up" xmlns="http://www.w3.org/2000/svg"><path d="M27.414 12.586l-10-10a2 2 0 00-2.828 0l-10 10a2 2 0 102.828 2.828L14 8.828V28a2 2 0 104 0V8.828l6.586 6.586c.39.39.902.586 1.414.586s1.024-.195 1.414-.586a2 2 0 000-2.828z"/></svg><svg fill="none" viewBox="0 0 11 8" id="check" xmlns="http://www.w3.org/2000/svg"><path d="M1 3.5l3 3L9.5 1" stroke="#fff" stroke-width="1.5" stroke-linecap="round" stroke-linejoin="round"/></svg><svg fill="none" viewBox="0 0 50 37" id="check-mark" xmlns="http://www.w3.org/2000/svg"><path fill-rule="evenodd" clip-rule="evenodd" d="M49.345.52a2 2 0 01.135 2.825l-30 33a2 2 0 01-2.797.16l-16-14a2 2 0 012.634-3.01L17.84 32.203 46.52.655A2 2 0 0149.345.52z" fill="#fff"/></svg><svg viewBox="0 0 32 32" id="close" xmlns="http://www.w3.org/2000/svg"><path d="M.937.937a3.2 3.2 0 014.526 0L16 11.474 26.537.937a3.199 3.199 0 114.525 4.526L20.525 16l10.537 10.537a3.199 3.199 0 11-4.525 4.525L16 20.525 5.463 31.062a3.2 3.2 0 01-4.526-4.525L11.474 16 .937 5.463a3.2 3.2 0 010-4.526z"/></svg><svg fill="none" viewBox="0 0 16 4" id="dots" xmlns="http://www.w3.org/2000/svg"><path fill-rule="evenodd" clip-rule="evenodd" d="M2 4a2 2 0 100-4 2 2 0 000 4zm6 0a2 2 0 100-4 2 2 0 000 4zm8-2a2 2 0 11-4 0 2 2 0 014 0z" fill="#E0E0E0"/></svg><svg viewBox="0 0 32 32" id="download" xmlns="http://www.w3.org/2000/svg"><path fill="none" d="M5.333 16v9.333h21.333V16M16 4.668v13.333M16 18.001l4.5-4.5M16 18.001l-4.5-4.5"/></svg><svg fill="none" viewBox="0 0 24 32" id="file" xmlns="http://www.w3.org/2000/svg"><path fill-rule="evenodd" clip-rule="evenodd" d="M15 1H5a4 4 0 00-4 4v22a4 4 0 004 4h14a4 4 0 004-4V8h-5.5A2.5 2.5 0 0115 5.5V1zm9 6.5V27a5 5 0 01-5 5H5a5 5 0 01-5-5V5a5 5 0 015-5h10.5l3.723 3.278L24 7.5zM21.924 7H17.5A1.5 1.5 0 0116 5.5V1.773l2.56 2.255L21.925 7z" fill="#E0E0E0"/></svg><svg fill="none" viewBox="0 0 8 14" id="pagin-arrow" xmlns="http://www.w3.org/2000/svg"><path fill-rule="evenodd" clip-rule="evenodd" d="M8 7c0-.354-.14-.693-.39-.943L2.275.724A1.333 1.333 0 00.391 2.609L4.78 7l-4.39 4.39a1.333 1.333 0 001.885 1.886L7.61 7.943C7.86 7.693 8 7.353 8 7z" fill="#fff"/></svg><svg fill="none" viewBox="0 0 12 12" id="reload" xmlns="http://www.w3.org/2000/svg"><path fill-rule="evenodd" clip-rule="evenodd" d="M10.64.255a.75.75 0 01.75.75v3.42a.75.75 0 01-.75.75H7.22a.75.75 0 110-1.5h2.67v-2.67a.75.75 0 01.75-.75z" fill="#fff"/><path fill-rule="evenodd" clip-rule="evenodd" d="M5.623.653a5.31 5.31 0 015.465 3.523.75.75 0 11-1.415.5 3.81 3.81 0 10-.615 3.646.75.75 0 111.172.936A5.31 5.31 0 115.623.653z" fill="#fff"/></svg><svg fill="none" viewBox="0 0 15 15" id="search" xmlns="http://www.w3.org/2000/svg"><path fill-rule="evenodd" clip-rule="evenodd" d="M13 6a4 4 0 10-8 0 4 4 0 008 0zM9 0a6 6 0 11-3.476 10.89l-3.817 3.817a1 1 0 01-1.414-1.414l3.816-3.816A6 6 0 019 0z" fill="#2C2C2C"/></svg><svg fill="none" viewBox="0 0 11 6" id="select-arrow" xmlns="http://www.w3.org/2000/svg"><path d="M6.001 5.293l4.44-4.44A.5.5 0 0010.086 0H.5a.5.5 0 00-.354.854l4.44 4.439a1 1 0 001.414 0z" fill="#000"/></svg><svg aria-hidden="true" style="position:absolute;width:0;height:0" overflow="hidden" viewBox="0 0 0 0" id="symbol-defs" xmlns="http://www.w3.org/2000/svg"><defs><symbol id="nicon-close" viewBox="0 0 32 32"><path d="M.937.937a3.2 3.2 0 014.526 0L16 11.474 26.537.937a3.199 3.199 0 114.525 4.526L20.525 16l10.537 10.537a3.199 3.199 0 11-4.525 4.525L16 20.525 5.463 31.062a3.2 3.2 0 01-4.526-4.525L11.474 16 .937 5.463a3.2 3.2 0 010-4.526z"/></symbol></defs></svg><svg fill="none" viewBox="0 0 14 8" id="view" xmlns="http://www.w3.org/2000/svg"><path d="M.194 4.283L0 4l.194-.283c.085-.123.24-.329.464-.59.369-.43.796-.86 1.278-1.261C3.331.704 4.9 0 6.606 0c1.708 0 3.276.704 4.67 1.866.483.402.91.831 1.279 1.262.223.26.379.466.464.59l.194.282-.194.283c-.085.123-.241.329-.464.59-.37.43-.796.86-1.279 1.261C9.882 7.296 8.314 8 6.606 8 4.9 8 3.331 7.296 1.936 6.134c-.482-.402-.91-.831-1.278-1.262a7.473 7.473 0 01-.464-.59zm1.223-.062c.334.39.723.781 1.16 1.145C3.806 6.39 5.163 7 6.606 7c1.442 0 2.799-.609 4.03-1.634A9.785 9.785 0 0011.98 4a9.785 9.785 0 00-1.343-1.366C9.405 1.61 8.048 1 6.606 1c-1.443 0-2.8.609-4.03 1.634A9.785 9.785 0 001.232 4c.053.066.115.14.184.221zm5.19 1.946c-1.326 0-2.4-1.045-2.4-2.334 0-1.288 1.074-2.333 2.4-2.333 1.325 0 2.4 1.045 2.4 2.333 0 1.289-1.075 2.334-2.4 2.334z" fill="#fff"/></svg></svg>