<svg aria-hidden="true" style="position: absolute; width: 0; height: 0; overflow: hidden;" version="1.1" xmlns="http://www.w3.org/2000/svg" xmlns:xlink="http://www.w3.org/1999/xlink">
<defs>
<symbol id="icon-close" viewBox="0 0 32 32">
<path d="M0.937 0.937c1.25-1.25 3.276-1.25 4.526 0l10.537 10.537 10.537-10.537c1.25-1.25 3.276-1.25 4.525 0s1.25 3.276 0 4.526l-10.537 10.537 10.537 10.537c1.25 1.25 1.25 3.276 0 4.525s-3.276 1.25-4.525 0l-10.537-10.537-10.537 10.537c-1.25 1.25-3.276 1.25-4.526 0s-1.25-3.276 0-4.525l10.537-10.537-10.537-10.537c-1.25-1.25-1.25-3.276 0-4.526z"></path>
</symbol>
</defs>
</svg>
